<?xml version="1.0" standalone="no"?>
<!DOCTYPE svg PUBLIC "-//W3C//DTD SVG 20010904//EN"
 "http://www.w3.org/TR/2001/REC-SVG-20010904/DTD/svg10.dtd">
<svg version="1.0" xmlns="http://www.w3.org/2000/svg"
 width="688.000000pt" height="362.000000pt" viewBox="0 0 688.000000 362.000000"
 preserveAspectRatio="xMidYMid meet">
<metadata>
Created by potrace 1.16, written by Peter Selinger 2001-2019
</metadata>
<g transform="translate(0.000000,362.000000) scale(0.100000,-0.100000)"
fill="#000000" stroke="none">
<path d="M1656 3250 c-205 -33 -454 -124 -592 -218 -6 -4 -30 -20 -53 -35 -23
-15 -50 -35 -60 -45 -27 -25 -207 -203 -230 -227 -27 -29 -141 -207 -141 -221
0 -7 -3 -14 -8 -16 -12 -5 -71 -141 -94 -215 -62 -206 -61 -204 -62 -443 0
-243 5 -276 71 -470 25 -75 127 -290 142 -300 4 -3 27 -34 51 -70 23 -36 93
-115 154 -175 175 -173 351 -279 591 -354 76 -24 169 -45 225 -51 93 -10 295
-14 335 -6 11 2 47 7 80 10 161 19 431 124 555 215 30 22 81 60 113 83 91 67
216 203 295 321 101 151 147 251 192 417 43 160 53 251 47 433 -5 154 -15 213
-62 377 -56 195 -211 447 -367 596 -69 66 -192 161 -242 186 -22 11 -52 29
-66 39 -61 46 -262 119 -410 150 -108 24 -368 34 -464 19z m234 -284 l0 -44
-97 -7 c-54 -3 -126 -13 -161 -21 -34 -7 -77 -16 -95 -19 -59 -11 -221 -88
-302 -144 -114 -80 -208 -172 -281 -277 -130 -187 -190 -357 -201 -570 -7
-149 7 -254 53 -393 59 -177 134 -296 276 -440 81 -81 236 -188 318 -219 201
-77 346 -98 555 -81 282 22 596 197 752 419 41 58 118 192 138 240 32 77 74
243 77 310 l3 55 -370 2 -370 2 -3 45 c-2 25 1 46 5 46 11 1 804 1 827 0 18 0
19 -6 13 -92 -4 -51 -14 -131 -23 -178 -9 -47 -18 -94 -20 -105 -5 -28 -50
-138 -85 -207 -101 -200 -270 -378 -465 -489 -68 -39 -152 -79 -171 -82 -10
-1 -23 -6 -29 -9 -6 -4 -55 -19 -110 -34 -81 -22 -127 -28 -253 -32 -97 -2
-176 0 -215 8 -99 19 -254 68 -315 99 -136 70 -163 85 -200 117 -21 19 -42 34
-46 34 -12 0 -188 187 -230 245 -47 66 -141 246 -149 285 -3 14 -12 49 -21 78
-79 258 -50 587 72 837 70 142 201 307 315 399 72 56 185 131 229 150 19 8 54
23 79 34 71 31 171 60 225 67 27 3 51 8 54 11 2 2 53 4 113 4 l108 0 0 -44z
m-432 -537 c122 -59 118 -243 -7 -295 -106 -44 -218 20 -228 133 -7 70 15 116
73 153 57 36 100 38 162 9z m432 -549 l0 -570 143 0 142 0 -3 -50 -4 -50 -189
0 -189 0 0 620 0 620 50 0 50 0 0 -570z"/>
<path d="M5623 2555 c-115 -30 -169 -53 -247 -109 -78 -55 -125 -113 -180
-218 -46 -89 -68 -168 -86 -314 -12 -98 2 -255 35 -379 19 -72 74 -182 124
-248 63 -84 207 -177 295 -191 21 -4 42 -9 47 -12 5 -3 51 -5 101 -5 155 0
256 34 349 118 l39 35 0 -61 0 -61 185 0 185 0 0 420 0 420 -335 0 -335 0 0
-155 0 -154 139 -3 139 -3 -19 -54 c-40 -114 -101 -167 -203 -178 -129 -13
-223 62 -274 218 -13 42 -17 88 -17 209 1 144 3 160 27 222 51 129 113 180
221 181 115 1 170 -35 198 -130 l12 -43 224 0 223 0 0 24 c0 78 -58 232 -108
290 -35 39 -166 129 -216 148 -177 65 -356 76 -523 33z"/>
<path d="M3980 1825 l0 -715 525 0 525 0 0 185 0 185 -309 0 c-279 0 -309 2
-315 17 -4 9 -6 246 -6 527 l1 511 -210 3 -211 2 0 -715z"/>
</g>
</svg>
